# xmcd
#
# Track frame offsets:
#	150
#	19969
#	39555
#	61628
#	79360
#	97541
#	113726
#	126662
#	138302
#	153976
#	167904
#	179471
#	201634
#	214841
#
# Disc length: 3139 seconds
#
# Revision: 0
# Processed by: cddbd v1.4PL0 Copyright (c) Steve Scherf et al.
# Submitted via: dBpowerAMP V4.0
#
DISCID=c50c410e
DTITLE=Muddy Waters - The Gold Collection
DYEAR=1900
DGENRE=Blues
TTITLE0=Long Distance Call
TTITLE1=Where's My Woman
TTITLE2=Honky Tonk
TTITLE3=Blow Wind Blow
TTITLE4=Howlin' Wolf
TTITLE5=Corinne, Corinne
TTITLE6=I'm Your Hoochie Coochie Man
TTITLE7=Baby Please Don't Go
TTITLE8=Manish Boy
TTITLE9=Everything Gonna Be Alright
TTITLE10=Got My Mojo Working
TTITLE11=Nine Below Zero
TTITLE12=Honey Bee
TTITLE13=Goin' Home
EXTD=
EXTT0=
EXTT1=
EXTT2=
EXTT3=
EXTT4=
EXTT5=
EXTT6=
EXTT7=
EXTT8=
EXTT9=
EXTT10=
EXTT11=
EXTT12=
EXTT13=
PLAYORDER=
